<?xml version="1.0" encoding="UTF-8"?>
<svg version="1.1" viewBox="0 0 1200 1200" width="300" height="300" xmlns="http://www.w3.org/2000/svg">
<path transform="translate(0)" d="m0 0h1200v1200h-1200z" fill="#FEFEFE"/>
<path transform="translate(0)" d="m0 0h1200v1200h-1200zm595 63-40 2-34 4-28 5-30 7-31 9-28 10-26 11-25 12-23 13-15 9-24 16-16 12-13 10-14 12-10 9-15 14-16 16-7 8-12 14-13 16-14 19-8 12-11 17-15 26-16 32-13 32-12 35-7 26-6 27-5 31-3 31-2 35v9l1 8v15l4 42 6 36 7 31 11 36 12 32 13 29 10 20 14 24 12 19 12 17 9 12 13 16 9 11 24 26 10 10 8 7 12 11 11 9 14 11 18 13 18 12 16 10 18 10 23 12 27 12 26 10 28 9 44 11 37 6 33 3 20 1h31l35-2 33-4 32-6 32-8 40-13 29-12 30-14 23-13 17-10 15-10 17-12 13-10 11-9 14-12 15-14 26-26 7-8 12-14 10-13 9-12 7-10 10-15 11-18 9-16 12-23 12-27 10-26 8-25 8-30 7-35 4-30 2-24 1-22v-25l-1-23-4-39-5-30-6-27-9-32-9-26-12-29-14-29-12-22-11-18-10-15-10-14-12-16-11-13-12-14-15-16-16-16-8-7-10-9-14-11-15-12-19-13-15-10-20-12-18-10-22-11-28-12-28-10-29-9-34-8-37-6-29-3-36-2z" fill="#FEFEFE"/>
<path transform="translate(824,205)" d="m0 0 8 1 21 7 37 7 3 1-1 4-8 8-23 1 18 18 4 5 3-1 7-8 9-11 5-8h2l7 8 8 7 20 20 7 8 14 15 11 14 13 16 13 18 12 19 10 17 13 26 13 31 13 38 8 31 4 20v8l-7 8-4 5-3 1-22-22-6-3-18 2-5-3-9-11-5-6-2-1 1 26 13 10 8 7 5 6 4-2 9-11 4 1 8 15 1 3v20l-4 6-7 7-5 6-23 16-12 9-14 14-1 3 2-1 28-2v13l-5 15-12 29-7 13-9 11-7 8-8 16-9 19v63l4 16-1 5-8 8-16 10-13 10-11 9 6 8 7 7 3 5-5 5-11 10-5 4-1 5 3 6-1 6-11 12-9 11-11 12-3 3-24 1-14 8-5 3-12 1-1-7-1-14-5-28-12-36-9-25v-29l2-20 7-15v-6l-8-15-2-5-1-17v-18l-3-5-12-13-1-5 7-22-1-6-5-6-5-5-3-2h-22l-4-2-5-7-5 2-17 11-3 1-3-1-6-9-5 3-14 12-3 3-4-1-9-11-14-15-9-11-9-10-6-10-14-33v-6l11-17 3-5-2-4-5-5 1-7 14-33 7-13 11-13 9-11 10-11 9-11 8-9 11-4 28-6 17-2h15l18 5 10 9 23 23 4 1 2-5 7-7 10-2h7l28 9 4 1h20l6-4 12-11 5-6 1-4-13-8-8-2-21-2-4-5-10-14-9-11-4-1-1 3-4 2-3 17-1 8-7-6-9-10-3-12-2-10-9-8-9-6-6-2 4 7 7 7v2h2l4 6-1 6-6 12-9 4h-4l1-5 5-10v-3l-16-9-9-10-3-4-10 1-17 4h-2l-2 6-11 9-6 5-9 20-8 5-14 7-8-7-3-3h-9l-1-1v-38l21-11 4-1 15-1-3-11-7-8-7-6v-2l20-5 8-5 9-10 8-13 5-7h18l-4-10 1-5 9-6 3 1-1 15 11 2 10 2h8l8-7 10-8 7-7 2-9 8-6 10-7 4-2h-9l-8 2h-6l-1-1v-15l5-14 3-6v-3l-6 1-9 6-4 5-7 6-6 10 1 6 3 8-1 7-7 18-2 1-15-9-9-11-3-1-14 10-5 2-3-12-4-19 7-6 11-7 15-10 1-1v-11l15-11 10-5z" fill="#010101"/>
<path transform="translate(595,63)" d="m0 0 32 1 34 3 33 5 25 5 28 7 37 12 32 13 33 16 25 14 22 14 17 12 16 12 16 13 10 9 8 7 10 9 18 18 7 8 13 15 13 16 14 19 10 15 10 16 11 19 12 23 9 19 11 27 12 36 9 34 5 26 4 28 3 30 1 23v25l-2 33-3 29-5 30-7 31-9 31-9 26-12 28-12 25-12 22-13 21-8 12-13 19-10 12-8 10-11 13-14 15-26 26-8 7-14 12-15 12-18 13-15 10-21 13-21 12-23 11-25 11-24 9-31 10-32 8-32 6-33 4-35 2h-31l-34-2-33-4-27-5-44-11-35-12-29-12-29-14-20-11-18-11-21-14-18-13-16-13-13-11-24-22-10-10-7-8-12-13-11-14-13-16-13-19-10-15-12-20-12-22-12-25-11-27-11-31-9-32-7-34-5-33-3-34v-18l-1-5 1-29 3-38 5-34 6-28 6-23 12-37 12-30 14-29 11-21 12-20 8-12 11-16 12-16 9-11 12-14 7-8 11-12 17-17 8-7 11-10 11-9 14-11 19-14 17-11 21-13 32-17 31-14 36-13 34-10 37-8 33-5 34-3zm-23 44-32 3-33 5-40 9-35 11-29 12-16 7-19 10-20 11-19 12-16 11-16 12-16 13-8 7-10 9-7 7-4 3v2l-4 2-7 8-7 7-7 8-10 12-11 14-13 18-11 17-12 20-12 23-12 25-12 31-8 25-8 31-6 32-4 33-1 15v57l3 30 5 32 8 36 10 33 10 26 13 29 14 27 14 23 13 19 9 12 14 18 10 11 7 8 12 13 13 13 8 7 11 10 14 11 17 13 16 11 21 13 23 13 22 11 29 12 20 7 26 8 29 7 36 6 29 3 15 1h35l32-2 33-4 36-7 33-9 31-11 19-8 25-12 25-13 19-12 15-10 18-13 17-14 15-13 15-14 12-12 7-8 11-12 11-14 13-17 20-30 12-21 14-27 10-23 10-27 9-29 7-29 6-36 3-28 1-41-1-33-5-43-6-31-10-37-10-29-11-26-12-25-13-24-14-22-12-17-13-17-11-13-9-10-7-8-25-25-8-7-13-11-17-13-15-11-15-10-25-15-27-14-24-11-29-11-26-8-28-7-26-5-30-4-23-2z" fill="#010101"/>
<path transform="translate(319,205)" d="m0 0 11 1 10 4 5 5-1 6v13l-6 7-11 9-7 6-14 8-22 13-6 4 5 17 14 7 19 8 2 2 4 18 1 3 2 1 2-9 8-15 3-3 15-6 2-3-1-10 6-12 13-22 6 2 19 11 1 3-4 13 9-3 10-4 4 1 8 16-1 7-2 6 12 5 10 8 1 6-5 8-7 3-20 7-23 1-13 5-16 8h-2v2l47-1-2 5-9 14-5 6-20 4-9 1-4 1-2 5-10 13-5 4-20 8-3 5-10 24-9 9-11 9-13 11-3 3-1 12-2 26-4-2-12-14-4-5-13-4-17-3v9l-2 2-21 1-18 13-9 8-2 11-1 7v18l1 10 15 9h6l9-5 7-8 6-7 2-1h10l-1 16-3 25-1 3 18-3h4l1 24 6 17v2l4 2 14 4 10 2 3 2 1-6 7-7 11-9 13-12 5 2 13 10 12 9 4 1 31-4 4 1 13 35 4 4 23 5 5 8 10 20 14 8 42 21 19 10 14 7-1 14-2 15-5 10-13 18-3 5v9l2 23v11l-12 28-5 4-22 5-4 1-2 6-8 10 1 6 3 5-1 8-10 25-5 11-2 4-9 4-14 5-6 15-4 4h-2l-2 4-5 4 1 6 1 5-5 5-8-1-25-12-20-12-9-7-1-1v-7l9-39v-9l-9-19-1-7 1-3 1-34-5-9-10-13-7-7-8-7-14-12-6-8-15-28-13-23-1-7 5-16 3-13-3-5 2-5 9-14 14-38v-3l-10-4h-9l-1 1-7-1-11-8-9-7-5-5-9-10-6-7-22-7-14-4-16-8-21-13-7-8-8-13-5-10 3-24 5-26 8-32 8-27 10-27 11-25 8-17 12-22 12-20 10-15 8-11 13-17 11-13 9-11 15-16 24-24 8-6 13-3h5l3-9z" fill="#010101"/>
<path transform="translate(592,135)" d="m0 0h8l45 18-1 6-12 31-7 18-12 6-19 8-24 9-20 7-6 3-7 11-10 15-11 8-4 1-5-8-17-34 1-3 8-7 6-7 1-7v-10l-4-2-16-11-21-14 1-4 10-9 16-5 43-12 23-4z" fill="#010101"/>
<path transform="translate(392,189)" d="m0 0h4v9l36 5 8 16 2 3 17 6-1 4-13 12-4 1-16-11-17-11-9-4-12-3-16 11-7 6-8 18-1 1-16 1-1-4 6-14 2-5 9-9 5-4-1-21 2-5h4l6 14h2l4-9 5-5z" fill="#010101"/>
<path transform="translate(909,505)" d="m0 0 5 2 11 12 8 11 8 16 13 28 6 10 11 12-1 5-5 13 2 5 10 10v2l-5 1h-8l-4 1-3-3-6-13-13-33-9-25-7-9-8-9-5-16-3-10 1-8z" fill="#FEFEFE"/>
<path transform="translate(465,139)" d="m0 0h5l6 11v2l-23 8-15 6-17 4-8 8-9-1-14-3-2-3 11-7 21-9 17-3 7-8 5-2z" fill="#010101"/>
<path transform="translate(698,282)" d="m0 0h6l3 3 12 27 6 8 7 8-6 8-7 6-18 5-2-1 1-12 1-7v-24l-5-6-1-6v-7z" fill="#010101"/>
<path transform="translate(646,232)" d="m0 0 4 1 6 8 1 4-9 6-11 7-9-5-4-5v-6l2-3 10-1z" fill="#010101"/>
<path transform="translate(407,236)" d="m0 0 5 1 14 7v12l-1 2h-13l-7-4-10-7v-3l9-6z" fill="#010101"/>
<path transform="translate(685,308)" d="m0 0 4 1 5 13v5l-11 6h-5l-3-21z" fill="#010101"/>
<path transform="translate(438,347)" d="m0 0 4 1 10 8-1 5-6 9h-3l-2-7-2-11z" fill="#010101"/>
</svg>
