<?xml version="1.0" standalone="no"?>
<!DOCTYPE svg PUBLIC "-//W3C//DTD SVG 20010904//EN"
 "http://www.w3.org/TR/2001/REC-SVG-20010904/DTD/svg10.dtd">
<svg version="1.0" xmlns="http://www.w3.org/2000/svg"
 width="300.000000pt" height="250.000000pt" viewBox="0 0 300.000000 250.000000"
 preserveAspectRatio="xMidYMid meet">

<g transform="translate(0.000000,250.000000) scale(0.100000,-0.100000)"
fill="#000000" stroke="none">
<path d="M590 2319 c-98 -25 -124 -45 -128 -96 -3 -35 -8 -42 -50 -67 -26 -15
-55 -40 -64 -56 -12 -20 -32 -33 -81 -49 -83 -28 -98 -45 -103 -118 -3 -49 0
-62 20 -83 15 -16 23 -38 23 -63 1 -46 26 -87 54 -87 11 0 36 7 56 15 19 8 48
15 64 15 28 0 29 -1 29 -51 0 -43 -5 -57 -34 -91 -44 -52 -60 -117 -51 -211 4
-53 2 -84 -8 -116 l-15 -43 25 7 c36 9 43 -7 43 -99 l0 -78 25 16 c13 9 27 16
29 16 10 0 56 -99 56 -120 0 -21 15 -27 25 -10 11 17 34 -8 47 -51 12 -43 22
-48 37 -22 9 15 12 15 19 5 7 -10 11 -7 16 13 l7 28 24 -23 c14 -13 30 -39 36
-58 6 -19 27 -69 46 -110 45 -99 83 -233 83 -291 0 -29 -9 -64 -22 -91 -22
-43 -26 -45 -73 -50 -68 -8 -90 -22 -110 -72 -15 -38 -15 -43 -1 -54 21 -15
142 -26 202 -17 26 3 63 17 82 30 22 14 49 23 74 23 45 0 93 22 107 48 6 11
15 56 20 101 6 45 13 86 16 91 3 4 -10 41 -29 82 -31 65 -35 85 -39 184 l-5
110 131 32 c145 35 271 55 296 47 9 -3 22 -24 28 -48 7 -25 44 -86 92 -150 44
-60 88 -128 97 -153 16 -42 16 -46 -2 -86 -10 -22 -42 -65 -70 -96 -51 -53
-54 -55 -94 -49 -52 7 -81 -6 -103 -43 -39 -66 -16 -80 136 -80 l115 0 115
114 c66 66 117 126 121 141 5 18 0 41 -15 72 -36 75 -38 183 -4 183 9 0 38
-16 66 -35 64 -44 98 -53 229 -60 145 -9 208 -22 236 -51 21 -21 24 -32 24
-108 0 -118 -7 -132 -75 -151 -42 -13 -59 -23 -70 -45 -20 -39 -20 -96 1 -104
20 -8 95 -8 172 0 60 7 63 8 102 59 l41 53 4 210 c3 152 0 214 -8 225 -7 8
-43 28 -82 43 -130 50 -240 136 -284 222 -16 30 -10 35 23 22 46 -17 137 -12
174 10 54 33 74 75 69 150 -3 55 -14 89 -75 222 -58 127 -72 167 -72 207 0 57
20 87 66 100 60 17 157 -38 137 -78 -4 -9 -8 -41 -8 -73 0 -48 4 -62 31 -94
16 -21 46 -46 65 -56 44 -23 142 -43 166 -34 16 6 14 11 -17 36 -19 16 -29 30
-22 30 9 0 9 6 -3 23 -8 13 -26 52 -40 87 -31 79 -59 110 -98 110 -22 0 -44
13 -83 50 -46 43 -58 50 -94 50 -68 0 -108 -23 -132 -76 -31 -71 -22 -126 46
-274 73 -157 82 -219 41 -268 -24 -29 -32 -32 -84 -32 -49 0 -67 6 -122 39
-36 22 -78 57 -97 82 -53 73 -80 97 -152 139 -87 52 -151 77 -236 90 -37 6
-85 19 -108 29 -89 41 -125 53 -233 81 -127 33 -177 56 -222 100 -39 40 -41
63 -4 54 23 -6 25 -5 18 12 -16 38 -56 217 -57 256 -1 18 -9 30 -27 38 -15 8
-21 14 -13 17 9 4 7 12 -7 31 -10 15 -32 57 -48 93 -26 57 -73 109 -98 109 -3
0 -27 14 -52 31 -53 37 -121 59 -172 58 -20 0 -70 -9 -111 -20z"/>
</g>
</svg>
