<?xml version="1.0" standalone="no"?>
<!DOCTYPE svg PUBLIC "-//W3C//DTD SVG 20010904//EN"
 "http://www.w3.org/TR/2001/REC-SVG-20010904/DTD/svg10.dtd">
<svg version="1.0" xmlns="http://www.w3.org/2000/svg"
 width="300.000000pt" height="98.000000pt" viewBox="0 0 300.000000 98.000000"
 preserveAspectRatio="xMidYMid meet">

<g transform="translate(0.000000,98.000000) scale(0.100000,-0.100000)"
fill="#000000" stroke="none">
<path d="M188 899 c-10 -5 -18 -15 -18 -22 -1 -11 -20 -27 -84 -71 -17 -12
-18 -19 -10 -57 9 -42 11 -44 42 -41 36 2 43 -18 17 -52 -17 -22 -20 -112 -5
-121 6 -3 10 -15 10 -26 0 -10 5 -19 10 -19 6 0 14 -8 17 -17 11 -28 40 -52
51 -41 12 12 16 6 47 -77 30 -78 26 -109 -16 -124 -17 -6 -29 -17 -29 -27 0
-14 8 -16 59 -11 32 2 68 10 81 17 23 12 23 10 4 151 l-6 46 44 11 c99 25 91
28 137 -43 44 -67 47 -88 13 -118 -9 -8 -28 -17 -42 -19 -14 -2 -26 -11 -28
-20 -3 -15 4 -18 38 -18 33 0 50 7 79 32 48 42 53 52 41 84 -16 40 -6 58 22
42 13 -6 52 -15 87 -19 68 -7 81 -17 81 -62 0 -19 -7 -31 -24 -39 -14 -6 -28
-18 -31 -26 -10 -27 11 -35 61 -23 41 11 49 10 66 -6 14 -13 36 -18 74 -18 66
0 103 30 111 92 13 101 -69 159 -172 122 -28 -11 -38 -9 -84 17 -29 15 -57 36
-62 46 -8 15 -6 18 20 18 35 0 61 23 61 53 0 12 -11 46 -25 75 -29 64 -31 87
-8 101 26 14 56 -5 48 -30 -9 -27 18 -65 51 -73 14 -4 28 -5 31 -2 10 10 -40
87 -61 96 -13 5 -27 14 -31 19 -11 19 -44 12 -61 -14 -16 -25 -16 -29 11 -96
26 -64 27 -71 13 -86 -23 -22 -60 -10 -100 33 -38 41 -78 64 -128 75 -48 11
-129 37 -165 55 -26 12 -30 20 -31 57 -2 58 -45 145 -83 168 -34 21 -95 25
-123 8z m816 -550 c70 -32 46 -149 -30 -149 -77 0 -102 121 -31 150 30 12 32
12 61 -1z"/>
<path d="M2090 466 c0 -24 23 -41 41 -30 5 3 9 16 9 30 0 19 -5 24 -25 24 -20
0 -25 -5 -25 -24z"/>
<path d="M1402 448 c-7 -7 -12 -25 -12 -40 0 -21 -5 -28 -20 -28 -12 0 -20 -7
-20 -16 0 -9 9 -18 20 -21 18 -5 20 -14 20 -78 0 -57 4 -75 18 -88 25 -23 65
-21 86 2 20 22 6 37 -21 23 -34 -18 -43 -3 -43 68 0 67 1 69 27 72 17 2 29 10
31 21 3 13 -3 17 -27 17 -29 0 -31 3 -31 34 0 39 -11 51 -28 34z"/>
<path d="M1184 380 c-53 -21 -78 -92 -54 -154 12 -33 66 -66 108 -66 45 0 92
26 92 50 0 24 -9 25 -46 5 -42 -22 -62 -19 -95 14 -33 33 -36 56 -13 89 33 48
97 51 114 6 5 -13 14 -24 19 -24 19 0 23 41 7 65 -14 21 -24 25 -64 24 -26 0
-57 -4 -68 -9z"/>
<path d="M1578 374 c-37 -19 -48 -43 -48 -99 0 -40 5 -52 35 -82 33 -33 39
-35 86 -31 63 6 98 38 106 95 7 50 -18 106 -53 122 -34 15 -93 13 -126 -5z
m96 -25 c70 -32 46 -149 -30 -149 -77 0 -102 121 -31 150 30 12 32 12 61 -1z"/>
<path d="M2072 380 c-27 -11 -24 -35 4 -35 17 0 19 -9 22 -68 3 -63 1 -69 -18
-74 -12 -3 -20 -12 -18 -22 4 -21 109 -24 116 -3 2 7 -5 16 -17 19 -18 5 -21
14 -23 97 -3 83 -5 91 -23 93 -11 1 -31 -2 -43 -7z"/>
<path d="M2202 379 c-27 -10 -24 -34 4 -34 18 0 19 -9 22 -123 2 -117 2 -124
-18 -129 -11 -3 -20 -12 -20 -19 0 -11 16 -14 65 -14 50 0 65 3 65 14 0 8 -10
16 -22 18 -19 2 -24 10 -26 46 -3 42 -2 43 19 32 28 -16 95 -7 119 15 47 42
49 137 5 181 -29 29 -98 33 -133 8 -20 -14 -22 -14 -22 0 0 18 -23 20 -58 5z
m161 -30 c30 -16 37 -28 37 -69 0 -50 -24 -80 -64 -80 -54 0 -68 17 -64 80 3
47 7 56 28 67 31 16 36 16 63 2z"/>
<path d="M2534 379 c-45 -23 -66 -95 -44 -153 12 -33 66 -66 108 -66 45 0 92
26 92 50 0 23 -17 25 -44 5 -30 -23 -74 -18 -101 10 -39 38 -32 45 44 45 89 0
101 5 101 42 0 43 -42 78 -94 77 -23 0 -50 -5 -62 -10z m96 -39 c29 -29 17
-40 -45 -40 -59 0 -73 10 -47 32 36 32 65 35 92 8z"/>
<path d="M2752 379 c-27 -10 -24 -34 4 -34 17 0 19 -8 19 -70 0 -66 -1 -70
-23 -73 -15 -2 -22 -9 -20 -20 5 -26 141 -25 146 1 3 13 -3 17 -27 17 l-31 0
0 65 c0 60 2 66 25 77 21 10 27 8 39 -8 18 -24 39 -7 34 27 -4 30 -36 36 -77
14 -28 -14 -31 -14 -31 0 0 17 -23 19 -58 4z"/>
<path d="M1777 373 c-9 -8 12 -33 27 -33 6 0 31 -38 54 -85 23 -47 48 -85 56
-85 7 0 30 37 51 84 24 54 44 86 56 89 11 3 19 12 19 21 0 13 -11 16 -50 16
-51 0 -58 -7 -39 -38 8 -13 5 -29 -12 -66 l-22 -50 -27 55 c-23 44 -25 55 -14
62 8 4 14 15 14 22 0 11 -13 15 -53 15 -30 0 -57 -3 -60 -7z"/>
</g>
</svg>
