<?xml version="1.0" standalone="no"?>
<!DOCTYPE svg PUBLIC "-//W3C//DTD SVG 20010904//EN"
 "http://www.w3.org/TR/2001/REC-SVG-20010904/DTD/svg10.dtd">
<svg version="1.0" xmlns="http://www.w3.org/2000/svg"
 width="300.000000pt" height="138.000000pt" viewBox="0 0 300.000000 138.000000"
 preserveAspectRatio="xMidYMid meet">
<metadata>
Created by potrace 1.10, written by Peter Selinger 2001-2011
</metadata>
<g transform="translate(0.000000,138.000000) scale(0.100000,-0.100000)"
fill="#000000" stroke="none">
<path d="M299 707 c-103 -29 -181 -97 -228 -197 -20 -43 -25 -71 -26 -130 0
-66 5 -85 33 -142 102 -208 359 -258 531 -103 22 20 55 67 73 103 61 123 39
264 -57 371 -76 84 -221 127 -326 98z m209 -47 c73 -32 147 -114 168 -188 69
-235 -144 -451 -381 -387 -162 43 -261 227 -210 389 29 92 114 174 215 207 43
14 151 3 208 -21z"/>
<path d="M267 657 c-8 -6 -4 -7 8 -4 22 4 47 -15 44 -36 -4 -33 3 -35 39 -11
40 28 57 50 44 58 -13 8 -122 2 -135 -7z"/>
<path d="M208 618 c-44 -21 -90 -85 -113 -156 -19 -58 -16 -78 17 -92 13 -6
32 -16 43 -22 11 -7 21 -13 22 -14 2 0 -3 -14 -9 -31 -11 -28 -9 -35 15 -66
18 -23 27 -48 27 -71 0 -63 54 -61 75 3 3 12 10 21 15 21 5 0 14 19 21 42 10
38 9 44 -7 53 -10 5 -32 24 -49 40 -24 24 -40 30 -67 30 -28 -1 -39 3 -48 21
-7 13 -19 20 -26 17 -9 -3 -14 2 -14 16 0 23 39 49 49 33 4 -6 17 5 31 25 13
19 35 39 49 45 21 7 23 11 11 18 -12 8 -10 10 8 10 12 0 22 -5 22 -12 0 -6 3
-9 6 -6 3 4 0 17 -7 30 -19 36 -49 51 -49 24 0 -16 -19 -25 -37 -19 -24 8 -13
31 20 44 17 7 35 14 40 17 4 2 7 -5 8 -15 0 -10 3 -13 6 -5 2 6 9 9 15 6 6 -4
9 -1 6 6 -7 23 -42 27 -80 8z m51 -342 c19 -20 21 -28 12 -45 -16 -28 -23 -26
-43 10 -34 58 -12 81 31 35z"/>
<path d="M492 615 c-25 -18 -29 -42 -7 -42 8 0 15 6 15 13 0 19 17 26 23 11 8
-21 -7 -37 -37 -43 -18 -3 -28 0 -33 12 -4 12 -8 13 -14 3 -4 -7 -5 -18 -1
-24 12 -19 10 -35 -4 -35 -8 0 -14 -7 -14 -15 0 -8 7 -15 15 -15 8 0 15 4 15
9 0 16 32 22 48 9 12 -10 14 -10 8 0 -4 6 -2 12 3 12 6 0 11 -8 12 -17 0 -10
3 -13 5 -7 6 15 55 -6 50 -21 -4 -14 -57 -13 -79 1 -25 16 -66 5 -83 -21 -40
-61 -19 -122 40 -117 32 3 34 1 41 -35 4 -21 8 -62 10 -91 2 -30 5 -55 7 -58
12 -11 48 13 59 39 7 18 18 35 25 39 6 4 9 19 7 32 -3 15 3 39 16 59 26 42 26
47 3 47 -16 0 -53 55 -52 78 1 13 40 -40 40 -54 0 -17 5 -17 31 -4 10 6 19 18
19 26 0 8 -4 13 -9 10 -9 -6 -37 21 -29 29 2 2 16 -2 32 -10 26 -14 27 -14 20
8 -15 51 -36 91 -65 128 -27 34 -33 38 -47 27 -13 -11 -15 -10 -9 5 3 9 2 17
-2 17 -5 0 -15 2 -23 5 -7 3 -23 -2 -36 -10z m110 -86 c11 -15 18 -33 16 -42
-2 -11 -12 -7 -41 18 -22 19 -36 39 -32 45 11 17 36 8 57 -21z m-91 -109 c51
-14 75 -66 57 -127 -7 -23 -15 -43 -19 -43 -3 0 -9 16 -12 36 -7 42 -42 84
-69 84 -24 0 -34 26 -18 45 15 18 15 18 61 5z"/>
<path d="M778 440 c-26 -20 -28 -27 -28 -91 0 -90 15 -108 94 -107 l56 1 0 58
0 59 -35 0 c-28 0 -35 -4 -35 -20 0 -11 5 -20 10 -20 6 0 10 -7 10 -16 0 -25
-34 -12 -44 18 -7 19 -6 36 3 54 10 22 16 25 40 21 25 -5 29 -3 34 21 6 33 7
33 -40 39 -29 4 -44 0 -65 -17z"/>
<path d="M920 362 c0 -104 7 -122 47 -122 17 0 23 6 23 23 0 13 -3 27 -7 31
-4 4 -6 43 -4 86 l3 80 -31 0 -31 0 0 -98z"/>
<path d="M1153 351 l2 -109 57 -1 c69 0 78 11 78 92 0 62 -15 82 -55 75 -22
-5 -25 -2 -25 23 0 25 -4 29 -29 29 l-29 0 1 -109z m82 -31 c0 -18 -6 -35 -12
-37 -9 -3 -13 8 -13 37 0 29 4 40 13 38 6 -3 12 -20 12 -38z"/>
<path d="M1462 353 l3 -108 26 -3 c22 -3 27 2 31 22 3 15 1 26 -4 26 -6 0 -9
35 -7 85 l4 85 -28 0 -28 0 3 -107z"/>
<path d="M1550 348 l0 -108 28 0 27 0 0 109 0 110 -27 -1 -28 -1 0 -109z"/>
<path d="M2213 413 c-15 -30 -17 -53 -5 -53 4 0 6 -20 4 -45 -5 -54 9 -75 50
-75 34 0 49 27 25 45 -22 16 -23 75 -2 75 8 0 15 9 15 20 0 11 -7 20 -15 20
-8 0 -15 9 -15 20 0 31 -42 26 -57 -7z"/>
<path d="M2870 420 c0 -11 -4 -20 -10 -20 -5 0 -10 -9 -10 -20 0 -11 4 -20 10
-20 5 0 10 -26 12 -57 l3 -58 38 -3 c34 -3 37 -1 37 22 0 16 -6 26 -15 26 -10
0 -15 11 -15 35 0 24 5 35 15 35 8 0 16 5 17 10 4 29 2 35 -12 35 -9 0 -14 8
-12 18 2 13 -4 17 -28 17 -23 0 -30 -4 -30 -20z"/>
<path d="M1017 392 c-22 -24 -22 -100 -1 -130 18 -26 74 -30 98 -6 25 25 24
122 -2 142 -24 18 -76 15 -95 -6z m63 -73 c0 -52 -24 -48 -28 4 -2 28 1 37 12
37 12 0 16 -11 16 -41z"/>
<path d="M1321 401 c-8 -5 -11 -16 -7 -29 6 -17 13 -20 37 -15 40 8 37 -10 -3
-22 -30 -9 -33 -14 -33 -50 l0 -40 62 -1 63 -2 -6 72 c-3 39 -7 77 -10 84 -4
14 -81 16 -103 3z"/>
<path d="M1630 325 l0 -85 30 0 30 0 0 61 c0 44 3 59 13 56 8 -3 11 -22 9 -60
l-4 -57 32 0 31 0 -3 83 -3 82 -67 2 -68 2 0 -84z"/>
<path d="M1784 393 c4 -9 12 -47 18 -85 l12 -68 41 0 42 0 11 63 c7 34 15 72
18 85 6 19 3 22 -25 22 -31 0 -31 -1 -31 -50 0 -27 -4 -50 -9 -50 -5 0 -11 23
-15 50 -6 48 -8 50 -37 50 -25 0 -30 -3 -25 -17z"/>
<path d="M1956 388 c-9 -12 -16 -42 -16 -65 0 -56 26 -83 78 -83 45 0 52 4 45
31 -4 15 -12 19 -25 15 -23 -5 -48 2 -48 15 0 5 18 9 40 9 39 0 40 1 40 34 0
44 -22 66 -65 66 -24 0 -39 -7 -49 -22z"/>
<path d="M2096 394 c-9 -8 -16 -24 -16 -35 0 -20 33 -59 50 -59 6 0 10 -5 10
-10 0 -6 -11 -8 -25 -4 -22 5 -25 3 -25 -20 0 -23 4 -26 38 -26 45 0 62 14 62
52 0 22 -8 33 -30 46 -34 20 -40 37 -9 27 22 -7 39 7 39 33 0 18 -75 15 -94
-4z"/>
<path d="M2310 324 l0 -84 31 0 31 0 -4 57 c-2 39 1 58 10 60 9 4 12 -12 12
-56 l0 -61 30 0 30 0 0 61 c0 44 3 59 13 56 8 -3 11 -22 9 -60 l-4 -57 32 0
31 0 -3 83 -3 82 -107 1 -108 2 0 -84z"/>
<path d="M2569 389 c-18 -18 -21 -30 -16 -72 5 -59 24 -77 78 -77 41 0 52 9
43 34 -4 11 -13 14 -28 10 -14 -3 -27 1 -35 10 -12 14 -8 16 28 16 41 0 41 0
41 38 0 21 -5 43 -12 50 -20 20 -76 14 -99 -9z"/>
<path d="M2700 324 l0 -84 31 0 31 0 -4 57 c-2 39 1 58 10 60 9 4 12 -12 12
-56 l0 -61 30 0 30 0 0 73 c0 39 -4 77 -8 84 -4 6 -33 11 -69 11 l-63 0 0 -84z"/>
</g>
</svg>
