<svg xmlns="http://www.w3.org/2000/svg" xml:space="preserve" width="128" height="128" data-id="lg_Jrmv0C7Fo7zclJVzWt" data-version="1" viewBox="0 0 128 128"><g data-padding="20"><g transform="translate(103.765 87.529)scale(1.03762)"><linearGradient id="a" x1="0" x2="1" y1="0" y2="0" gradientUnits="objectBoundingBox"><stop offset="0%" stop-color="#9c7945"/><stop offset="49.8%" stop-color="#faf3aa"/><stop offset="100%" stop-color="#9c7945"/></linearGradient><path fill="url(#a)" d="M4.786 28.347h.6q-.26-.2-.47-.42c-4.81-4.34-8.48-12.78-8.48-19.6 0-9.65 7.9-16 15.37-16s14.97 6.87 14.97 16.51c0 6.82-4.05 15-9.07 19.2 1.03 3.93 6.68 5.21 18.32 8.4 12.94 3.57 11.59 15.72 10.69 18.26-1.5 4.2-68.58 4.97-69.84 0-.28-2.05-3.25-14.7 9.7-18.24 11.3-3.13 16.94-4.43 18.2-8.11" transform="translate(-50.01 -47.91)"/></g><g transform="translate(96.782 90.538)scale(1.03762)"><linearGradient id="b" x1="0" x2="1" y1="0" y2="0" gradientUnits="objectBoundingBox"><stop offset="0%" stop-color="#9c7945"/><stop offset="49.8%" stop-color="#faf3aa"/><stop offset="100%" stop-color="#9c7945"/></linearGradient><path fill="url(#b)" d="M5.386 28.347h-.6l.13-.42q.21.22.47.42" transform="translate(-43.27 -50.81)"/></g><g transform="translate(72.242 88.359)scale(1.03762)"><linearGradient id="c" x1="0" x2="1" y1="0" y2="0" gradientUnits="objectBoundingBox"><stop offset="0%" stop-color="#9c7945"/><stop offset="49.8%" stop-color="#faf3aa"/><stop offset="100%" stop-color="#9c7945"/></linearGradient><path fill="url(#c)" d="m-13.854 34.947 2.17-.59c4.1-1.12 7.35-2.01 9.8-2.9-1.92-.85-3.02-1.78-3.37-3.13a19 19 0 0 0 4.3-5.52c-2.51-4.45-4.16-9.81-4.16-14.48q.02-2.58.82-5.12a10.3 10.3 0 0 0-5.37-1.6c-5.6 0-11.5 4.75-11.5 11.97 0 5.1 2.74 11.42 6.34 14.67q.16.16.35.31h-.45c-.94 2.77-5.16 3.74-13.64 6.07-9.68 2.66-7.46 12.12-7.25 13.66.27 1.07 4.62 1.78 10.7 2.18-.26-10.06 5.78-14 11.26-15.5" transform="translate(-19.62 -48.71)"/></g><g transform="translate(134.998 88.359)scale(1.03762)"><linearGradient id="d" x1="0" x2="1" y1="0" y2="0" gradientUnits="objectBoundingBox"><stop offset="0%" stop-color="#9c7945"/><stop offset="49.8%" stop-color="#faf3aa"/><stop offset="100%" stop-color="#9c7945"/></linearGradient><path fill="url(#d)" d="m37.206 34.947-2.17-.59c-4.1-1.12-7.36-2.01-9.8-2.9 1.92-.85 3.01-1.78 3.37-3.13a19 19 0 0 1-4.3-5.52c2.5-4.45 4.15-9.81 4.15-14.48q-.02-2.58-.81-5.12a10.3 10.3 0 0 1 5.37-1.6c5.59 0 11.5 4.75 11.5 11.97 0 5.1-2.74 11.42-6.34 14.67q-.16.16-.36.31h.46c.94 2.76 5.16 3.74 13.64 6.06 9.68 2.66 7.46 12.12 7.25 13.66-.27 1.07-4.62 1.78-10.7 2.18.25-10.06-5.79-14-11.26-15.5" transform="translate(-80.1 -48.7)"/></g><path fill="transparent" stroke="transparent" stroke-width=".186" d="M12.5 28.582h103v70.836h-103z"/></g></svg>