<svg xmlns="http://www.w3.org/2000/svg" xml:space="preserve" width="128" height="128" data-id="lg_mw3n8avGUK6RQ9ASQH" data-version="1" viewBox="0 0 128 128"><g data-padding="20"><g transform="translate(54.086 52.596)scale(.17706)"><rect width="458.681" height="109.61" x="-460.571" y="-43.685" fill="none" rx="0" ry="0" transform="matrix(.97 0 0 .97 338.13 53.62)"/><path fill="#fff" d="M-72.907 94.584q-9.875 0-17.063-4.152-7.197-4.161-11.077-11.834t-3.88-18.187q0-10.573 3.88-18.217 3.88-7.653 11.077-11.815 7.188-4.151 17.063-4.151t17.072 4.15q7.187 4.163 11.067 11.816 3.88 7.644 3.88 18.217 0 10.514-3.88 18.187t-11.067 11.834q-7.198 4.152-17.072 4.152m0-6.8q7.12 0 12.29-3.327t7.973-9.487 2.803-14.56q0-8.458-2.803-14.588-2.803-6.14-7.973-9.467t-12.29-3.328q-7.072 0-12.27 3.328-5.19 3.327-7.994 9.467-2.803 6.13-2.803 14.589 0 8.4 2.803 14.56t7.993 9.486q5.2 3.327 12.27 3.327m62.275 6.79q-6.984 0-12.086-3.162-5.103-3.171-7.857-8.982-2.755-5.82-2.755-13.764t2.755-13.755q2.754-5.82 7.857-8.982 5.102-3.172 12.086-3.172 5.325 0 9.525 1.95 4.21 1.95 7.12 5.607 2.92 3.647 4.297 8.797l-7.857 2.067q-1.28-5.791-4.617-8.886-3.327-3.104-8.468-3.104-6.848 0-10.544 5.073-3.706 5.083-3.706 14.405 0 9.37 3.706 14.424 3.695 5.054 10.544 5.054 5.092 0 8.4-3.007t4.646-8.711l7.809 2.212Q9.116 82.4 7.186 85.34t-4.57 5.015q-2.637 2.066-5.974 3.143-3.327 1.077-7.275 1.077m51.7-1.088H30.824q-2.948 0-5.15-1.96-2.202-1.95-2.202-4.936V50.303h-7.993v-6.44h7.993v-10.38l7.71-1.65v12.029h9.837v6.44h-9.836v34.223q0 1.513.437 2.017.436.514 1.862.514h7.586Zm30.488 1.088q-6.984 0-12.32-3.28-5.324-3.287-8.312-9.117-2.987-5.84-2.987-13.512t2.987-13.502q2.988-5.84 8.313-9.128 5.335-3.28 12.32-3.28 6.983 0 12.308 3.28 5.326 3.288 8.313 9.128 2.988 5.83 2.988 13.502t-2.988 13.512q-2.987 5.83-8.313 9.118-5.325 3.279-12.31 3.279m0-6.431q7.024 0 11.098-5.238 4.064-5.238 4.064-14.24 0-9.05-4.064-14.27-4.074-5.208-11.097-5.208-7.032 0-11.097 5.21-4.064 5.218-4.064 14.268 0 9.002 4.064 14.24t11.097 5.238m57.85 5.335h-9.835l-18.653-49.626h8.545l15.763 45.26h-1.474l15.665-45.26h8.546Zm35.115 0h-7.722V43.853h7.722Zm-3.861-57.938q-2.667 0-4.55-1.882-1.881-1.882-1.881-4.55 0-2.706 1.882-4.568t4.549-1.863q2.706 0 4.569 1.863t1.862 4.568q0 2.668-1.862 4.55t-4.57 1.88m25.19 75.855h-7.525V43.853h7.255v10.34l-.232-.737q2.027-5.422 6.712-8.06t9.962-2.64q6.072 0 10.66 3.173 4.598 3.162 7.168 9.002 2.57 5.83 2.57 13.783 0 7.945-2.59 13.755-2.6 5.81-7.187 8.963-4.598 3.143-10.621 3.143-4.87 0-9.642-2.435-4.782-2.435-7.217-8.216l.689-.37Zm14.067-23.251q6.15 0 10.107-5.073 3.948-5.074 3.948-14.54 0-9.187-3.812-14.27-3.812-5.073-10.156-5.073-3.86 0-7.1 2.018-3.24 2.027-5.17 6.295-1.92 4.278-1.92 11.03 0 9.97 4.13 14.792 4.134 4.82 9.973 4.82m52.797 6.43q-7.071 0-12.241-3.162-5.17-3.171-7.974-8.982-2.793-5.82-2.793-13.716 0-7.954 2.793-13.783 2.803-5.84 7.906-9.002 5.102-3.172 11.989-3.172 3.957 0 7.925 1.26 3.977 1.262 7.265 4.366 3.279 3.104 5.277 8.497 1.998 5.403 1.998 13.62H234.66V64.25h33.494l-2.211 2.9q-.223-6.527-2.105-10.475-1.892-3.948-4.9-5.723-3.006-1.766-6.682-1.766-4.365 0-7.537 2.27-3.172 2.28-4.87 6.645t-1.697 10.66q0 9.273 3.793 14.327 3.783 5.054 10.767 5.054 5.015 0 8.439-2.522 3.414-2.532 5.025-7.304l7.585 2.57q-1.794 4.317-4.782 7.372-2.988 3.056-7.1 4.685-4.113 1.63-9.167 1.63m40.313-1.095h-7.721V43.853h7.265v10.525l-.281-1.193q2.212-5.15 6.644-7.79 4.433-2.638 8.983-2.638 1.329 0 2.59.223 1.26.233 2.366.786l-1.008 7.256q-2.532-.776-5.006-.776-1.561 0-3.89.62-2.318.62-4.587 2.474-2.28 1.862-3.813 5.539-1.542 3.676-1.542 9.787ZM-224.303 105.3h31.228l12.653-9.38V65.318h-31.23l-12.652 9.38Zm1.44-29.53h28.838v28.09h-28.84Zm41 19.422-10.722 7.958V75.407l10.723-7.95Zm-29.307-28.426h27.85l-10.224 7.584h-27.851Z"/><path fill="#fff" d="M-208.1 89.203c-2.188-1.508-2.87-2.65-2.207-3.725q.518-.893 1.286-.96c1.104-.154 2.506.979 2.948 1.42l1.027-1.007a7.1 7.1 0 0 0-2.717-1.7v-2.572h-1.44v2.419c-.662.077-1.603.422-2.352 1.65-1.651 2.708 1.565 4.926 2.678 5.694 1.594 1.104 3.12 2.4 2.304 3.753q-.537.893-1.296.97c-1.132.144-2.515-.99-2.956-1.44l-1.028 1.018a7.7 7.7 0 0 0 2.66 1.67v2.592h1.44v-2.4h.048c.672-.086 1.612-.432 2.36-1.66 1.633-2.69-1.535-4.868-2.764-5.722m74.486-23.886h-31.237l-12.643 9.38V105.3h31.229l12.653-9.38Zm-30.758 1.44h27.86l-10.224 7.584h-27.86Zm-11.682 9.024h28.829v28.08h-28.83Zm40.992 19.412-10.713 7.958V75.407l10.732-7.95Z"/><path fill="#fff" d="M-161.3 89.193c-2.188-1.508-2.88-2.65-2.217-3.725q.528-.893 1.287-.96c1.123-.154 2.515.979 2.957 1.42l1.017-1.007a7.2 7.2 0 0 0-2.697-1.7v-2.572h-1.44v2.419c-.663.077-1.613.422-2.352 1.65-1.652 2.708 1.564 4.926 2.678 5.694 1.594 1.104 3.11 2.4 2.304 3.753q-.547.893-1.296.97c-1.152.144-2.515-.99-2.957-1.44l-1.027 1.018a7.7 7.7 0 0 0 2.65 1.67v2.592h1.44v-2.4h.057a3.17 3.17 0 0 0 2.352-1.66c1.632-2.69-1.517-4.868-2.765-5.722m-37.516-57.341v30.605h31.228l12.653-9.38V22.473h-31.238Zm1.44 1.085h28.828v28.07h-28.828Zm40.992 19.42-10.724 7.95V32.59l10.733-7.968Zm-1.45-28.444-10.214 7.584h-27.87l10.225-7.584Z"/><path fill="#fff" d="M-182.64 46.347c-2.18-1.497-2.861-2.65-2.208-3.724q.528-.874 1.286-.96c1.114-.144 2.515.98 2.957 1.43l1.018-1.017a7.2 7.2 0 0 0-2.698-1.7v-2.572h-1.44v2.419c-.672.077-1.613.432-2.352 1.65-1.66 2.718 1.565 4.936 2.669 5.694 1.603 1.104 3.12 2.41 2.304 3.763q-.538.874-1.296.96c-1.104.144-2.506-.99-2.947-1.44l-1.028 1.018a7.7 7.7 0 0 0 2.65 1.68v2.592h1.44v-2.41h.048c.672-.077 1.613-.432 2.362-1.651 1.632-2.688-1.527-4.877-2.765-5.731"/></g><path fill="transparent" stroke="transparent" stroke-width=".184" d="M12.5 54.27h103v19.46h-103z"/></g></svg>