<svg xmlns="http://www.w3.org/2000/svg" xml:space="preserve" width="2000" height="506" data-id="lg_JKQj8frTTgl12gMTUi" data-version="1" viewBox="0 0 2000 506"><g data-padding="20"><path d="M732.769 497.09h184.057l74.574-55.28V261.43H807.343l-74.574 55.279Zm8.487-174.043h169.969v165.556h-169.97ZM982.913 437.51l-63.201 46.906V320.897l63.201-46.85ZM810.171 269.974h164.142l-60.259 44.7H749.912Z"/><path d="M828.277 402.204c-12.9-8.883-16.917-15.616-13.013-21.953q3.056-5.263 7.581-5.658c6.506-.906 14.768 5.77 17.37 8.373l6.055-5.94a41.9 41.9 0 0 0-16.013-10.015v-15.164h-8.487v14.259c-3.904.453-9.449 2.489-13.862 9.731-9.732 15.956 9.223 29.026 15.786 33.554 9.392 6.506 18.389 14.144 13.58 22.121q-3.169 5.263-7.64 5.716c-6.675.848-14.824-5.829-17.427-8.487l-6.053 5.997a45.3 45.3 0 0 0 15.673 9.846v15.276h8.487v-14.145h.283c3.961-.51 9.506-2.546 13.918-9.79 9.62-15.842-9.053-28.685-16.294-33.721m439.01-140.774h-184.114l-74.517 55.28v180.38h184.057l74.574-55.28Zm-181.285 8.487h164.198l-60.259 44.7h-164.197Zm-68.859 53.186h169.914v165.5h-169.914Zm241.601 114.407-63.145 46.906V320.897l63.258-46.85Z"/><path d="M1104.109 402.147c-12.901-8.883-16.974-15.616-13.07-21.953q3.112-5.263 7.581-5.658c6.62-.906 14.825 5.77 17.428 8.373l5.997-5.94a42.4 42.4 0 0 0-15.9-10.015V351.79h-8.487v14.259c-3.903.453-9.505 2.489-13.861 9.731-9.733 15.956 9.222 29.026 15.785 33.554 9.393 6.506 18.333 14.144 13.58 22.121q-3.225 5.263-7.64 5.716c-6.789.848-14.823-5.828-17.426-8.488l-6.054 5.998a45.3 45.3 0 0 0 15.616 9.845v15.278h8.488v-14.147h.339a18.67 18.67 0 0 0 13.863-9.788c9.618-15.843-8.94-28.686-16.296-33.722M882.934 64.19v180.38h184.058l74.573-55.279V8.91H957.45Zm8.488 6.393h169.912v165.443H891.422Zm241.6 114.463-63.202 46.85V68.545l63.257-46.962Zm-8.544-167.649-60.202 44.699H900.022l60.259-44.699Z"/><path d="M978.33 149.627c-12.844-8.827-16.862-15.616-13.014-21.953q3.111-5.15 7.581-5.658c6.564-.85 14.825 5.77 17.427 8.43l5.998-5.997a42.4 42.4 0 0 0-15.9-10.015V99.27h-8.487v14.259c-3.96.453-9.505 2.545-13.862 9.731-9.788 16.012 9.223 29.083 15.73 33.553 9.448 6.506 18.388 14.202 13.58 22.179q-3.17 5.149-7.64 5.658c-6.506.848-14.766-5.828-17.369-8.487l-6.055 5.998a45.3 45.3 0 0 0 15.616 9.901v15.278h8.487v-14.203h.284c3.96-.453 9.506-2.546 13.918-9.731 9.62-15.843-8.996-28.744-16.294-33.78"/><path fill="transparent" stroke="transparent" d="M723 0h554v506H723z"/></g></svg>