<svg xmlns="http://www.w3.org/2000/svg" xml:space="preserve" width="128" height="128" data-id="lg_JKQj8frTTgl12gMTUi" data-version="1" viewBox="0 0 128 128"><g data-padding="20"><path d="M14.316 109.381h34.22l13.865-10.277V65.567h-34.22L14.316 75.845Zm1.578-32.358h31.6v30.78h-31.6Zm44.93 21.281-11.751 8.72v-30.4l11.75-8.71ZM28.706 67.156h30.517l-11.203 8.31H17.503Z"/><path d="M32.073 91.74c-2.398-1.652-3.145-2.903-2.42-4.081q.569-.979 1.41-1.052c1.21-.169 2.746 1.073 3.23 1.556l1.125-1.104a7.8 7.8 0 0 0-2.977-1.862v-2.82h-1.578v2.652c-.725.084-1.756.462-2.577 1.809-1.81 2.966 1.715 5.397 2.935 6.238 1.746 1.21 3.419 2.63 2.525 4.113q-.59.979-1.42 1.063c-1.242.157-2.757-1.084-3.24-1.578l-1.126 1.115a8.4 8.4 0 0 0 2.914 1.83v2.84h1.578v-2.63h.052c.737-.094 1.768-.473 2.588-1.82 1.789-2.945-1.683-5.333-3.03-6.269m81.622-26.173h-34.23L65.598 75.845v33.536h34.22l13.865-10.277Zm-33.705 1.578h30.528l-11.203 8.31H68.776Zm-12.802 9.889h31.59v30.77h-31.59Zm44.918 21.27-11.74 8.72v-30.4l11.761-8.71Z"/><path d="M83.356 91.73c-2.399-1.652-3.156-2.904-2.43-4.082q.579-.978 1.41-1.052c1.23-.168 2.756 1.073 3.24 1.557l1.115-1.105a7.9 7.9 0 0 0-2.956-1.862v-2.819h-1.578v2.651c-.726.084-1.767.463-2.577 1.81-1.81 2.966 1.714 5.396 2.934 6.238 1.747 1.21 3.409 2.63 2.525 4.113q-.6.978-1.42 1.062c-1.262.158-2.756-1.083-3.24-1.578l-1.126 1.115a8.4 8.4 0 0 0 2.904 1.83v2.841h1.578v-2.63h.063a3.47 3.47 0 0 0 2.577-1.82c1.788-2.945-1.662-5.333-3.03-6.27m-41.11-62.833v33.537h34.22L90.32 52.155V18.62H56.09Zm1.578 1.189h31.59v30.76h-31.59Zm44.919 21.281-11.751 8.71v-30.37l11.76-8.73Zm-1.589-31.17L75.95 28.508H45.412l11.203-8.31Z"/><path d="M59.971 44.78c-2.388-1.64-3.135-2.903-2.42-4.08q.579-.958 1.41-1.053c1.22-.158 2.756 1.073 3.24 1.568l1.115-1.115a7.9 7.9 0 0 0-2.956-1.862v-2.82h-1.578v2.651c-.736.085-1.767.474-2.577 1.81-1.82 2.977 1.715 5.407 2.924 6.238 1.757 1.21 3.42 2.64 2.525 4.123q-.59.958-1.42 1.052c-1.21.158-2.746-1.083-3.23-1.578L55.88 50.83a8.4 8.4 0 0 0 2.903 1.84v2.84h1.578v-2.64h.053c.736-.084 1.767-.473 2.588-1.809 1.788-2.946-1.673-5.344-3.03-6.28"/><path fill="transparent" stroke="transparent" stroke-width=".186" d="M12.5 16.962h103v94.076h-103z"/></g></svg>