<svg xmlns="http://www.w3.org/2000/svg" xml:space="preserve" width="128" height="128" data-id="lg_CI2x9ZpLtm3ZY4lz0w" data-version="1" viewBox="0 0 128 128"><g data-padding="20"><g transform="matrix(1.30597 0 0 1.02687 116.788 100.955)"><linearGradient id="a" x1="0" x2="1" y1="0" y2="0" gradientUnits="objectBoundingBox"><stop offset="0%" stop-color="#9c7945"/><stop offset="49.8%" stop-color="#faf3aa"/><stop offset="100%" stop-color="#9c7945"/></linearGradient><path fill="url(#a)" d="M57.827 9.242c.03-.05.04-.14.05-.18l-.1.27Z" transform="translate(-74.22 -47.78)"/></g><g transform="matrix(1.30597 0 0 1.02687 84.91 131.74)"><linearGradient id="b" x1="0" x2="1" y1="0" y2="0" gradientUnits="objectBoundingBox"><stop offset="0%" stop-color="#9c7945"/><stop offset="49.8%" stop-color="#faf3aa"/><stop offset="100%" stop-color="#9c7945"/></linearGradient><path fill="url(#b)" d="M9.827 40.572c3.24-10.25 8.75-21.4 8.75-21.4l14.85 40.01-22.56-12.66 8.22-7.9Zm47.18 0c-3.23-10.25-8.74-20.81-8.74-20.81l-14.84 39.42 22.55-12.66-8.23-7.9Z" transform="translate(-49.81 -77.76)"/></g><g transform="matrix(1.30597 0 0 1.02687 85 85.747)"><linearGradient id="c" x1="0" x2="1" y1="0" y2="0" gradientUnits="objectBoundingBox"><stop offset="0%" stop-color="#9c7945"/><stop offset="49.8%" stop-color="#faf3aa"/><stop offset="100%" stop-color="#9c7945"/></linearGradient><path fill="url(#c)" d="M9.737-2.228c.14 2.35 2.77 9.64 5.3 8.91 1.22 9.68 8.06 12.78 8.06 12.78l8.5 4.91h3.88l8.38-4.91s6.82-3.1 8.07-12.78c2.52.73 5.16-6.56 5.3-8.9.14-2.28-.35-5.8-3.42-5.15l.18-1.46q0-.04.02-.07c.51-4.13.85-7.74.67-9.75-.5-5.15-3.84-10.48-9.33-13.77l-.13-.04c-2.92-1.2-7.35-2.97-12.28-3.15-4.35.11-8.46.86-11.25 3.15-.45.37-1.2 1.33-1.71 1.58-.17.09-3.93.86-5.62 3.67-2.49 4.15-1.83 15.1-1.22 19.84-3.07-.64-3.55 2.87-3.4 5.14" transform="translate(-49.87 -32.96)"/></g><path fill="transparent" stroke="transparent" stroke-width=".186" d="M30.72 12.5h66.56v103H30.72z"/></g></svg>